<svg xmlns="http://www.w3.org/2000/svg" viewBox="0 4.985559940338135 16 6.028839588165283"><g id="payment-addi"><path fill-rule="evenodd" clip-rule="evenodd" d="M0 10.4346V7.53604C0.0128824 6.84039 0.425119 5.4491 1.97101 5.4491C3.90337 5.4491 4.05796 7.38146 4.05796 7.53604V10.4346C4.04507 10.6278 3.9111 11.0143 3.47825 11.0143C2.93719 11.0143 2.85989 10.5505 2.85989 10.4346V9.35246H1.19806V10.4346C1.18518 10.6278 1.04347 11.0143 0.579708 11.0143C0.115942 11.0143 0 10.6278 0 10.4346ZM1.1595 8.15467H2.82133V7.45902C2.82133 7.20137 2.65901 6.68607 2.00974 6.68607C1.36047 6.68607 1.17238 7.20137 1.1595 7.45902V8.15467Z" fill="#537DFF"/><path fill-rule="evenodd" clip-rule="evenodd" d="M7.8064 6.76325C6.86599 6.40254 4.70508 6.29949 4.48274 8.61832C4.21224 11.4396 8.57935 11.942 8.96582 9.12077V5.60387C8.97871 5.39777 8.87311 4.98556 8.3475 4.98556C7.92236 4.98556 7.79351 5.39777 7.8064 5.60387V6.76325ZM6.7244 9.85552C7.32204 9.85552 7.80652 9.37104 7.80652 8.7734C7.80652 8.17576 7.32204 7.69128 6.7244 7.69128C6.12676 7.69128 5.64228 8.17576 5.64228 8.7734C5.64228 9.37104 6.12676 9.85552 6.7244 9.85552Z" fill="#537DFF"/><path fill-rule="evenodd" clip-rule="evenodd" d="M12.6885 6.76325C11.7481 6.40254 9.58717 6.29949 9.36484 8.61832C9.09433 11.4396 13.4614 11.942 13.8479 9.12077V5.60387C13.8608 5.39777 13.7552 4.98556 13.2296 4.98556C12.8045 4.98556 12.6756 5.39777 12.6885 5.60387V6.76325ZM11.6065 9.85552C12.2042 9.85552 12.6887 9.37104 12.6887 8.7734C12.6887 8.17576 12.2042 7.69128 11.6065 7.69128C11.0089 7.69128 10.5244 8.17576 10.5244 8.7734C10.5244 9.37104 11.0089 9.85552 11.6065 9.85552Z" fill="#537DFF"/><path d="M14.6087 7.5362C14.6087 7.19469 14.8855 6.91784 15.227 6.91784C15.5685 6.91784 15.8454 7.19469 15.8454 7.5362V10.3961C15.8454 10.7376 15.5685 11.0144 15.227 11.0144C14.8855 11.0144 14.6087 10.7376 14.6087 10.3961V7.5362Z" fill="#537DFF"/><path d="M16 5.7585C16 6.18539 15.6539 6.53144 15.2271 6.53144C14.8002 6.53144 14.4541 6.18539 14.4541 5.7585C14.4541 5.33161 14.8002 4.98556 15.2271 4.98556C15.6539 4.98556 16 5.33161 16 5.7585Z" fill="#537DFF"/></g></svg>