<svg xmlns="http://www.w3.org/2000/svg" viewBox="0 2.4828500747680664 16 11.034350395202637"><g id="payment-american"><path d="M16 12.5713C16 13.0937 15.5766 13.5171 15.0542 13.5171H0.945781C0.423437 13.5172 0 13.0937 0 12.5713V3.42866C0 2.90632 0.423437 2.48285 0.945781 2.48285H15.0542C15.5766 2.48285 16 2.90632 16 3.42866V12.5713Z" fill="#2558B8"/><path opacity="0.15" d="M0.672406 12.5713V3.42866C0.672406 2.90632 1.09591 2.48285 1.61825 2.48285H0.94575C0.423438 2.48285 0 2.90629 0 3.42866V12.5713C0 13.0937 0.423438 13.5172 0.945781 13.5172H1.61828C1.09594 13.5172 0.672406 13.0937 0.672406 12.5713Z" fill="#244E9F"/><path d="M2.33105 6.89839H2.80912L2.57015 6.28995L2.33105 6.89839Z" fill="white"/><path d="M4.87329 8.94086V9.22339H5.67732V9.52767H4.87329V9.8537H5.7642L6.17704 9.39726L5.78595 8.94086H4.87329Z" fill="white"/><path d="M11.1531 6.28995L10.8923 6.89839H11.3922L11.1531 6.28995Z" fill="white"/><path d="M7.19854 10.0274V8.78879L6.63354 9.39726L7.19854 10.0274Z" fill="white"/><path d="M8.26328 9.13651C8.24153 9.00614 8.15453 8.94086 8.02409 8.94086H7.56787V9.33198H8.04596C8.17631 9.33201 8.26328 9.26686 8.26328 9.13651Z" fill="white"/><path d="M9.78419 9.28863C9.82766 9.26685 9.84947 9.2016 9.84947 9.13654C9.87122 9.04969 9.82766 9.00616 9.78419 8.98441C9.74084 8.96266 9.67556 8.96266 9.61047 8.96266H9.17578V9.31038H9.61044C9.67553 9.31038 9.74081 9.31038 9.78419 9.28863Z" fill="white"/><path d="M12.9131 5.72495V5.9857L12.7828 5.72495H11.7616V5.9857L11.6312 5.72495H10.2405C10.0015 5.72495 9.80584 5.76845 9.63209 5.85535V5.72495H8.65431V5.7467V5.85535C8.54569 5.76848 8.41531 5.72495 8.24147 5.72495H4.74303L4.50391 6.2682L4.26494 5.72495H3.48272H3.15675V5.9857L3.04809 5.72495H3.02634H2.092L1.65734 6.7462L1.15762 7.85438L1.14844 7.87616H1.15762H2.26584H2.27972L2.28759 7.85438L2.41803 7.52851H2.7005L2.83087 7.87616H4.09106V7.85438V7.61541L4.19978 7.87613H4.82987L4.93847 7.61541V7.85438V7.87616H5.43825H7.93716H7.95891V7.31116H8.00247C8.04587 7.31116 8.04588 7.31116 8.04588 7.37638V7.85441H9.61041V7.72404C9.74078 7.78932 9.93622 7.85441 10.197 7.85441H10.849L10.9793 7.50682H11.2835L11.4138 7.85441H12.6741V7.63716V7.52854L12.8697 7.85441H12.9131H12.9349H13.891V5.72495H12.9132H12.9131ZM5.54697 7.55029H5.32963H5.19928V7.42001V6.35513L5.17753 6.40498V6.40438L4.67203 7.55029H4.65603H4.53981H4.35178L3.83031 6.35513V7.55029H3.09156L2.93947 7.22435H2.20059L2.04847 7.55029H1.6665L2.30931 6.0292H2.8525L3.46091 7.48504V6.0292H3.59125H4.03659L4.04684 6.05098H4.04759L4.32175 6.64766L4.51862 7.09473L4.52559 7.0722L4.96016 6.02923H5.54694V7.55029H5.54697ZM7.04634 6.35513H6.19887V6.6376H7.02459V6.94179H6.19887V7.2461H7.04634V7.57195H5.8295V6.02923H7.04634V6.35513ZM8.59619 6.91545C8.59675 6.91595 8.59747 6.91629 8.59816 6.91676C8.60638 6.92545 8.61341 6.93416 8.61941 6.94251C8.66103 6.99707 8.69469 7.07823 8.69638 7.19723C8.6965 7.19929 8.69659 7.20132 8.69672 7.20338C8.69672 7.20457 8.69694 7.2056 8.69694 7.20682C8.69694 7.20751 8.69688 7.20804 8.69688 7.20869C8.69738 7.22066 8.69769 7.23288 8.69769 7.2461V7.55032H8.37181V7.37641C8.37181 7.28951 8.37181 7.1591 8.30653 7.0722C8.286 7.05166 8.26522 7.03813 8.24259 7.02851C8.21003 7.00741 8.14831 7.00707 8.04588 7.00707H7.65462V7.55032H7.28531V6.02923H8.11109C8.30653 6.02923 8.43697 6.02923 8.54566 6.09441C8.65213 6.15835 8.71644 6.26438 8.71888 6.43229C8.71384 6.66354 8.56541 6.79041 8.45869 6.8332C8.45869 6.8332 8.53119 6.84779 8.59619 6.91545ZM9.32791 7.55029H8.95847V6.0292H9.32791V7.55029ZM13.5652 7.55029H13.087L12.3917 6.39857V7.35466L12.3894 7.35241V7.55123H12.0223V7.55032H11.6529L11.5225 7.22438H10.7619L10.6316 7.57198H10.2187C10.045 7.57198 9.82756 7.52857 9.69725 7.3982C9.56688 7.26782 9.50175 7.09398 9.50175 6.81154C9.50175 6.59426 9.54516 6.37682 9.69725 6.20304C9.80581 6.07257 10.0015 6.02923 10.2404 6.02923H10.5882V6.35513H10.2404C10.1101 6.35513 10.045 6.37679 9.95791 6.4421C9.89284 6.50726 9.84934 6.6376 9.84934 6.7897C9.84934 6.96357 9.87109 7.0722 9.95791 7.1591C10.0233 7.22438 10.1101 7.24613 10.2187 7.24613H10.3708L10.8705 6.05104H11.0879H11.4138L12.0223 7.50688V7.43263V6.94185V6.89845V6.05107H12.5655L13.1955 7.11576V6.05107H13.5651V7.55035H13.5652V7.55029Z" fill="white"/><path d="M8.28629 6.66273C8.29263 6.65595 8.29838 6.64826 8.30326 6.63945C8.32295 6.60829 8.34551 6.55216 8.33335 6.47557C8.33285 6.46854 8.33157 6.46204 8.33007 6.45576C8.32967 6.45401 8.32973 6.45248 8.32926 6.45073L8.32904 6.45076C8.31823 6.41354 8.29063 6.39066 8.2631 6.37679C8.21954 6.35513 8.15435 6.35513 8.0892 6.35513H7.65454V6.70285H8.0892C8.15435 6.70285 8.21957 6.70285 8.2631 6.68107C8.26963 6.67776 8.27545 6.67326 8.28104 6.66816L8.2811 6.66845C8.2811 6.66845 8.28335 6.6661 8.28629 6.66273Z" fill="white"/><path d="M14.847 9.72326C14.847 9.57116 14.8036 9.41901 14.7385 9.31038V8.3326H14.7375V8.26732C14.7375 8.26732 13.8267 8.26732 13.6911 8.26732C13.5556 8.26732 13.3912 8.39766 13.3912 8.39766V8.26732H12.3917C12.2395 8.26732 12.0441 8.31082 11.957 8.39766V8.26732H10.1753V8.3326V8.39763C10.045 8.28907 9.80579 8.26729 9.69723 8.26729H8.52382V8.33257V8.3976C8.4152 8.28904 8.15432 8.26726 8.02388 8.26726H6.72032L6.41604 8.59323L6.13354 8.26726H6.04257H5.89454H4.17798V8.33254V8.5042V10.462H6.09017L6.40435 10.1478L6.6767 10.462H6.69851H7.80032H7.85026H7.87201H7.89363V10.2448V9.96229H8.00235C8.15432 9.96229 8.34998 9.96229 8.50207 9.89701V10.4402V10.4838H9.47992V10.4402V9.91876H9.52326C9.58854 9.91876 9.58854 9.91876 9.58854 9.98395V10.4402V10.4838H12.5436C12.7394 10.4838 12.9348 10.4402 13.0434 10.3533V10.4402V10.4838H13.9779C14.1733 10.4838 14.369 10.462 14.4994 10.3751C14.6994 10.255 14.8255 10.0426 14.8443 9.78916C14.8452 9.78166 14.8463 9.77416 14.8469 9.76663L14.8457 9.76541C14.8465 9.75135 14.847 9.73745 14.847 9.72326ZM8.00238 9.59291H7.5677V9.65794V9.78838V9.91879V10.1578H6.85348L6.43779 9.67973L6.43635 9.68132L6.41604 9.65794L5.93801 10.1578H4.54735V8.63679H5.95976L6.34563 9.05945L6.42676 9.14795L6.43776 9.13654L6.89413 8.63682H8.04576C8.26926 8.63682 8.51954 8.69198 8.61438 8.91938C8.62579 8.96441 8.63242 9.01448 8.63242 9.07135C8.63242 9.50591 8.3282 9.59291 8.00238 9.59291ZM10.1753 9.57113C10.2187 9.63616 10.2404 9.72323 10.2404 9.85366V10.1578H9.8711V9.96229C9.8711 9.87523 9.8711 9.72323 9.80582 9.65794C9.76248 9.59291 9.67545 9.59291 9.54517 9.59291H9.15407V10.1578H8.7847V8.61504H9.61035C9.78407 8.61504 9.93617 8.61504 10.045 8.68016C10.1536 8.74541 10.2404 8.85407 10.2404 9.02791C10.2404 9.26688 10.0884 9.39726 9.97973 9.44079C10.0884 9.48407 10.1536 9.52766 10.1753 9.57113ZM11.6747 8.94085H10.8271V9.22335H11.6529V9.52763H10.8271V9.83188H11.6747V10.1578H10.4578V8.61501H11.6747V8.94085ZM12.5872 10.1578H11.8919V9.83191H12.5872C12.6523 9.83191 12.6959 9.83191 12.7394 9.78841C12.7612 9.76663 12.7828 9.72326 12.7828 9.67976C12.7828 9.6362 12.7612 9.59295 12.7394 9.57116C12.7176 9.54945 12.6741 9.52769 12.6089 9.52769C12.2612 9.50594 11.8484 9.5277 11.8484 9.0497C11.8484 8.83238 11.9788 8.59332 12.3699 8.59332H13.0869V8.96266H12.4134C12.3482 8.96266 12.3047 8.96266 12.2612 8.98441C12.2179 9.0062 12.2179 9.0497 12.2179 9.0931C12.2179 9.15832 12.2612 9.18007 12.3047 9.20163C12.3482 9.22341 12.3916 9.22341 12.435 9.22341H12.6306C12.8262 9.22341 12.9566 9.26688 13.0435 9.35382C13.1087 9.41904 13.1522 9.5277 13.1522 9.67976C13.1522 10.0056 12.9566 10.1578 12.5872 10.1578ZM14.4559 10.0056C14.3691 10.0926 14.2169 10.1578 13.9996 10.1578H13.3044V9.83191H13.9995C14.0648 9.83191 14.1083 9.83191 14.1517 9.78841C14.1734 9.76663 14.1952 9.72326 14.1952 9.67976C14.1952 9.6362 14.1734 9.59295 14.1517 9.57116C14.13 9.54945 14.0866 9.52769 14.0214 9.52769C13.6738 9.50594 13.2608 9.5277 13.2608 9.04973C13.2608 8.8432 13.379 8.65663 13.6704 8.60123C13.7052 8.59641 13.742 8.59332 13.7824 8.59332H14.4995V8.96266H14.0214H13.8476H13.8258C13.7606 8.96266 13.7172 8.96266 13.6738 8.98441C13.6519 9.0062 13.6302 9.0497 13.6302 9.0931C13.6302 9.15832 13.6519 9.18007 13.7172 9.20163C13.7606 9.22341 13.8041 9.22341 13.8476 9.22341H13.8692H14.0431C14.138 9.22341 14.2099 9.23513 14.2756 9.25823C14.3358 9.28001 14.535 9.36913 14.5796 9.60179C14.5834 9.62616 14.5863 9.6516 14.5863 9.67976C14.5863 9.81016 14.5428 9.91879 14.4559 10.0056Z" fill="white"/></g></svg>