<svg xmlns="http://www.w3.org/2000/svg" viewBox="0.050048828125 0.05000022053718567 15.899975776672363 15.899985313415527"><g id="payment-nequi"><path d="M4.7166 0.961879L0.352414 7.52848C-0.23392 8.41071 0.0621384 9.62227 0.984178 10.1138L10.5124 15.1937C11.359 15.645 12.3943 15.1783 12.6463 14.2318L14.9983 5.39821C15.1524 4.81918 14.8622 4.21284 14.3222 3.98601L6.10316 0.533321C5.60061 0.322209 5.02309 0.500708 4.7166 0.961879Z" fill="#FF0066"/><path d="M6.89157 15.2175L0.824946 6.63505C0.206039 5.75949 0.483711 4.5226 1.41303 4.01541L8.42558 0.188239C8.89161 -0.0661002 9.46588 0.0377336 9.81983 0.440334L15.652 7.07407C16.0541 7.53144 16.0487 8.22974 15.6395 8.68043L9.55231 15.3855C8.81094 16.2021 7.53044 16.1212 6.89157 15.2175Z" fill="#290148"/></g></svg>