<svg xmlns="http://www.w3.org/2000/svg" viewBox="0.05004880577325821 3.3264200687408447 15.899995803833008 9.347190856933594"><g id="payment-lovers"><path d="M0.761011 9.28064H0.115797V12.5788H0.761011V9.28064Z" fill="black"/><path d="M2.5504 10.0591C2.37256 10.0459 2.1941 10.0745 2.02913 10.1427C1.86417 10.2108 1.71722 10.3167 1.59993 10.4518C1.39684 10.7208 1.2869 11.0493 1.2869 11.3871C1.2869 11.7249 1.39684 12.0533 1.59993 12.3223C1.72093 12.4499 1.86988 12.5472 2.0349 12.6066C2.19992 12.666 2.37645 12.6858 2.5504 12.6644C2.72436 12.6858 2.90089 12.666 3.06591 12.6066C3.23093 12.5472 3.37988 12.4499 3.50088 12.3223C3.70397 12.0533 3.81391 11.7249 3.81391 11.3871C3.81391 11.0493 3.70397 10.7208 3.50088 10.4518C3.38414 10.316 3.23728 10.2097 3.07218 10.1414C2.90707 10.0732 2.72834 10.045 2.5504 10.0591ZM2.98344 11.961C2.93279 12.0282 2.86647 12.0818 2.79035 12.1172C2.71422 12.1525 2.63062 12.1684 2.54694 12.1635C2.46325 12.1684 2.37965 12.1525 2.30353 12.1172C2.2274 12.0818 2.16108 12.0282 2.11043 11.961C1.99879 11.7909 1.94465 11.5891 1.95607 11.3856C1.94277 11.1819 1.99707 10.9795 2.11043 10.8102C2.16108 10.743 2.2274 10.6894 2.30353 10.6541C2.37965 10.6188 2.46325 10.6029 2.54694 10.6078C2.63056 10.6033 2.71401 10.6194 2.79006 10.6547C2.86611 10.69 2.93248 10.7434 2.98344 10.8102C3.09386 10.9807 3.14677 11.1825 3.13434 11.3856C3.14732 11.5888 3.09436 11.7907 2.98344 11.961Z" fill="black"/><path d="M5.27528 11.9707L4.75494 10.1351H4.0311L4.91972 12.5786H5.59789L6.49459 10.1351H5.80082L5.27528 11.9707Z" fill="black"/><path d="M8.90045 10.5559C8.79541 10.3941 8.64656 10.2659 8.47147 10.1864C8.28738 10.1066 8.08855 10.0669 7.88811 10.0701C7.72491 10.0639 7.56219 10.0915 7.40996 10.151C7.25774 10.2106 7.11923 10.3008 7.00297 10.4162C6.88334 10.5498 6.79161 10.7061 6.73321 10.876C6.67481 11.0459 6.65094 11.2259 6.66302 11.4053C6.64554 11.5824 6.67084 11.7612 6.73677 11.9264C6.8027 12.0916 6.90731 12.2384 7.0417 12.3542C7.2864 12.5551 7.59312 12.6637 7.90893 12.6614C8.0775 12.6788 8.24784 12.6597 8.40849 12.6055C8.56914 12.5512 8.71638 12.4629 8.84033 12.3466C8.9671 12.2268 9.05121 12.0684 9.07968 11.8957H8.42175C8.38956 11.9608 8.34497 12.019 8.29051 12.0668C8.18796 12.1466 8.06034 12.1866 7.9309 12.1796C7.80594 12.1837 7.68248 12.1514 7.57534 12.0865C7.49154 12.0286 7.4238 11.9501 7.37849 11.8585C7.33317 11.7669 7.31178 11.6652 7.31633 11.5629H9.11726C9.12383 11.3979 9.11609 11.2327 9.09413 11.069C9.07024 10.8851 9.00391 10.7094 8.90045 10.5559ZM7.33136 11.1377C7.34549 10.9936 7.40645 10.8582 7.5048 10.7525C7.55607 10.7034 7.61677 10.6653 7.68318 10.6406C7.74958 10.6159 7.8203 10.6051 7.89101 10.6088C8.03095 10.6048 8.16736 10.6534 8.27374 10.7449C8.3278 10.795 8.37108 10.8557 8.40092 10.9232C8.43075 10.9908 8.4465 11.0637 8.44719 11.1377H7.33136Z" fill="black"/><path d="M10.7901 10.0779C10.6199 10.07 10.4525 10.1239 10.3184 10.2297C10.2147 10.329 10.1261 10.4431 10.0553 10.5683V10.132H9.43727V12.5755H10.0906V11.4311C10.0814 11.2796 10.1065 11.128 10.164 10.9878C10.2175 10.8984 10.2956 10.8266 10.3889 10.781C10.4822 10.7355 10.5867 10.7182 10.6895 10.7312C10.7154 10.7309 10.7413 10.7322 10.767 10.7353C10.7977 10.7353 10.8364 10.7393 10.8751 10.7428V10.0779C10.848 10.0779 10.8289 10.0738 10.8208 10.0738C10.8109 10.077 10.8005 10.0784 10.7901 10.0779Z" fill="black"/><path d="M12.5914 11.1293C12.3615 11.0881 12.1353 11.0283 11.9149 10.9507C11.8851 10.9354 11.8602 10.9119 11.8431 10.883C11.826 10.854 11.8175 10.8208 11.8184 10.7872C11.8197 10.756 11.8285 10.7256 11.844 10.6986C11.8595 10.6715 11.8813 10.6486 11.9074 10.6318C11.9994 10.581 12.104 10.5579 12.2086 10.5655C12.2751 10.5582 12.3424 10.5663 12.4054 10.5892C12.4683 10.6121 12.5252 10.6492 12.5717 10.6976C12.613 10.7558 12.6371 10.8246 12.6411 10.896H13.2863C13.2852 10.77 13.2541 10.6461 13.1956 10.5347C13.137 10.4234 13.0527 10.3278 12.9498 10.256C12.7202 10.1224 12.4574 10.0576 12.1924 10.0693C11.9175 10.0512 11.6463 10.1404 11.4351 10.3183C11.3505 10.3915 11.2826 10.4822 11.2359 10.5842C11.1892 10.6862 11.1649 10.7971 11.1645 10.9094C11.1592 10.9921 11.172 11.0751 11.202 11.1524C11.232 11.2297 11.2784 11.2994 11.3379 11.3568C11.5134 11.4904 11.7175 11.5809 11.934 11.6209C12.1645 11.6665 12.3908 11.7315 12.6104 11.8152C12.6404 11.833 12.6649 11.8588 12.6813 11.8897C12.6977 11.9205 12.7054 11.9554 12.7034 11.9903C12.7014 12.0253 12.6899 12.0591 12.6702 12.0879C12.6504 12.1167 12.6231 12.1395 12.5914 12.1538C12.4955 12.197 12.391 12.2169 12.2861 12.212C12.1258 12.2299 11.9648 12.1837 11.838 12.0834C11.785 12.0124 11.754 11.9272 11.749 11.8385H11.0916C11.0888 11.9507 11.1126 12.062 11.161 12.1631C11.2093 12.2643 11.2809 12.3524 11.3697 12.4203C11.6179 12.605 11.924 12.6934 12.2317 12.6693C12.5332 12.6941 12.8337 12.6113 13.0805 12.4354C13.1675 12.3719 13.2379 12.2881 13.2857 12.1913C13.3336 12.0944 13.3574 11.9873 13.3551 11.8792C13.3574 11.7926 13.3418 11.7065 13.3091 11.6263C13.2765 11.5462 13.2275 11.4738 13.1655 11.4138C13.0062 11.264 12.8064 11.165 12.5914 11.1293Z" fill="black"/><path d="M10.2374 7.56933C10.1606 7.44886 10.0559 7.34901 9.93215 7.27844C9.80144 7.2228 9.66068 7.19507 9.51877 7.19699C9.38531 7.19615 9.25335 7.22537 9.13257 7.28251C8.99655 7.3692 8.88472 7.48934 8.80765 7.63159V7.00209H8.76486C8.54271 7.00638 8.32721 6.9257 8.16185 6.77636V9.33622C7.88723 9.33622 7.62475 9.34029 7.61666 9.34029C7.48542 9.34029 7.40795 9.32866 7.38078 9.30131C7.3536 9.27397 7.34204 9.21172 7.34204 9.11049V7.79914H7.74674V7.28775H7.34204V6.60124C7.32643 6.61695 7.31487 6.63208 7.29926 6.64778C7.14039 6.82025 6.93022 6.9362 6.70029 6.97824V7.28775H6.3534V7.7974H6.6974V9.32982C6.6871 9.45499 6.72591 9.57925 6.80552 9.67598C6.89374 9.7438 6.99471 9.7929 7.10234 9.8203C7.20996 9.8477 7.322 9.85284 7.43165 9.83539L7.73692 9.82376H8.8036V8.45132C8.79204 8.27662 8.83818 8.10297 8.93484 7.95739C8.9806 7.8995 9.03967 7.85368 9.10696 7.82388C9.17424 7.79409 9.24771 7.7812 9.32104 7.78634C9.3874 7.77904 9.45442 7.79173 9.5136 7.8228C9.57279 7.85387 9.62147 7.90193 9.65348 7.96088C9.70254 8.06106 9.72523 8.17224 9.71939 8.28377V9.80049H10.3802V8.33497C10.3835 8.17386 10.3758 8.01271 10.3571 7.85267C10.3432 7.74912 10.3019 7.65125 10.2374 7.56933Z" fill="black"/><path d="M13.0319 7.72926C12.9286 7.55436 12.7804 7.41068 12.6029 7.31328C12.4188 7.23342 12.22 7.19377 12.0196 7.19692C11.8533 7.199 11.6893 7.23485 11.5371 7.30234C11.385 7.36982 11.2481 7.46754 11.1344 7.58963C11.0148 7.72315 10.9231 7.87951 10.8647 8.04941C10.8063 8.21932 10.7824 8.3993 10.7945 8.57867C10.7775 8.7627 10.8029 8.94818 10.8685 9.12079C10.9342 9.29339 11.0384 9.44849 11.1732 9.5741C11.4178 9.77501 11.7246 9.88366 12.0404 9.88129C12.2122 9.89085 12.3842 9.86354 12.5447 9.80115C12.7053 9.73876 12.8509 9.64273 12.9718 9.51941C13.0986 9.39961 13.1827 9.24118 13.2111 9.06853H12.5532C12.521 9.13365 12.4764 9.19176 12.422 9.23957C12.3194 9.31937 12.1918 9.35942 12.0623 9.35244C11.9374 9.35651 11.8139 9.32419 11.7068 9.25936C11.623 9.20138 11.5552 9.12289 11.5099 9.03129C11.4646 8.93968 11.4432 8.83797 11.4478 8.73575H13.2487C13.2553 8.57074 13.2475 8.40547 13.2256 8.24181C13.2016 8.0581 13.1353 7.88258 13.0319 7.72926ZM11.4668 8.31104C11.481 8.16696 11.5419 8.03158 11.6403 7.9259C11.6916 7.87677 11.7523 7.83868 11.8187 7.81397C11.8851 7.78926 11.9558 7.77845 12.0265 7.7822C12.1664 7.77823 12.3029 7.82675 12.4092 7.91834C12.4633 7.96838 12.5066 8.02905 12.5364 8.0966C12.5662 8.16414 12.582 8.23713 12.5827 8.31104H11.4668Z" fill="black"/><path d="M14.9216 7.20886C14.7514 7.201 14.584 7.25488 14.4498 7.36071C14.3478 7.47855 14.2596 7.60777 14.1868 7.74585V7.26355H13.5687V9.79898H14.2221V8.60864C14.2129 8.45718 14.238 8.3056 14.2955 8.16532C14.349 8.07593 14.4271 8.0041 14.5204 7.95856C14.6137 7.91301 14.7181 7.89571 14.821 7.90875C14.8469 7.90843 14.8728 7.90979 14.8985 7.91283C14.9291 7.91283 14.9679 7.9169 15.0066 7.92039V7.20886H14.9216Z" fill="black"/><path d="M0.417013 6.50661C0.370196 6.45436 0.327477 6.39854 0.289242 6.33964C0.213861 6.22294 0.155455 6.09599 0.115797 5.96264V9.21017H0.761011V6.7882C0.630451 6.71592 0.513918 6.62053 0.417013 6.50661Z" fill="black"/><path d="M1.61902 9.57687C1.86372 9.77779 2.17044 9.88643 2.48624 9.88406C2.65811 9.89363 2.83004 9.86631 2.99062 9.80392C3.1512 9.74153 3.29676 9.6455 3.41764 9.52219C3.54442 9.40238 3.62853 9.24395 3.65699 9.0713H3.00253C2.97034 9.13642 2.92575 9.19453 2.87129 9.24235C2.76875 9.32214 2.64112 9.3622 2.51168 9.35521C2.38673 9.35928 2.26326 9.32696 2.15612 9.26213C2.07233 9.20415 2.00458 9.12566 1.95927 9.03406C1.91395 8.94245 1.89256 8.84074 1.89711 8.73852H3.69804C3.70461 8.57351 3.69687 8.40824 3.67492 8.24458C3.64808 8.06087 3.58072 7.88554 3.47777 7.73145C3.37447 7.55655 3.22629 7.41287 3.04878 7.31547C2.86469 7.23561 2.66587 7.19596 2.46543 7.19911C2.29921 7.20119 2.13512 7.23704 1.98301 7.30453C1.83091 7.37201 1.69392 7.46973 1.58028 7.59182C1.46066 7.72534 1.36892 7.8817 1.31052 8.05161C1.25212 8.22151 1.22825 8.40149 1.24033 8.58086C1.22383 8.76494 1.24938 8.95038 1.31501 9.12301C1.38064 9.29564 1.48463 9.45088 1.61902 9.57687ZM2.08154 7.92402C2.13281 7.87489 2.19351 7.8368 2.25991 7.81209C2.32632 7.78738 2.39704 7.77657 2.46774 7.78032C2.60769 7.77635 2.7441 7.82487 2.85048 7.91645C2.90454 7.9665 2.94782 8.02717 2.97765 8.09472C3.00749 8.16226 3.02323 8.23525 3.02392 8.30916H1.90867C1.92296 8.165 1.98414 8.02962 2.08269 7.92402H2.08154Z" fill="black"/><path d="M4.63365 9.8754C4.79955 9.87877 4.9633 9.83717 5.10773 9.75497C5.22219 9.68735 5.32636 9.60349 5.41704 9.50596C5.42109 9.56065 5.42861 9.61068 5.43612 9.65781C5.44429 9.70621 5.45867 9.75334 5.4789 9.79802H6.18251V9.70493C6.14531 9.68777 6.11234 9.66254 6.08596 9.63105C6.05962 9.57673 6.04635 9.51694 6.04722 9.45651C6.04318 9.34364 6.04318 9.24648 6.04318 9.16853V8.02415C6.05688 7.89571 6.03445 7.76597 5.97843 7.64973C5.92241 7.5335 5.83507 7.43544 5.72635 7.36673C5.50062 7.25443 5.25138 7.19836 4.99962 7.20325C4.83316 7.19297 4.6666 7.22166 4.51302 7.28707C4.35944 7.35249 4.22302 7.45284 4.11447 7.58025C4.00024 7.73583 3.93681 7.92325 3.93293 8.11665H4.55502C4.56524 8.03338 4.59715 7.9543 4.64753 7.88743C4.69052 7.84529 4.74229 7.8133 4.79909 7.79378C4.85589 7.77426 4.91629 7.7677 4.97592 7.77456C5.08332 7.76811 5.19067 7.78808 5.28869 7.83274C5.32458 7.85391 5.35378 7.88486 5.37292 7.92203C5.39205 7.9592 5.40033 8.00106 5.39681 8.04277C5.3961 8.0847 5.38225 8.12534 5.35723 8.15888C5.33221 8.19242 5.29729 8.21714 5.25747 8.22952C5.17409 8.2604 5.08698 8.27996 4.99846 8.2877L4.77819 8.31504C4.57936 8.33174 4.38542 8.38581 4.2064 8.47445C4.09106 8.54079 3.9967 8.63857 3.93419 8.75654C3.87169 8.8745 3.8436 9.00784 3.85315 9.14118C3.84693 9.24337 3.86348 9.34566 3.90159 9.44058C3.9397 9.5355 3.99841 9.62065 4.07343 9.68981C4.23194 9.8174 4.43081 9.88328 4.63365 9.8754ZM4.65273 8.81364C4.74639 8.76746 4.847 8.73718 4.95048 8.72404L5.09733 8.6967C5.15597 8.68599 5.2139 8.67161 5.27077 8.65364C5.31454 8.63843 5.35614 8.6175 5.39449 8.59139V8.83225C5.40257 8.91695 5.38987 9.00235 5.35752 9.08096C5.32516 9.15957 5.27413 9.22899 5.20891 9.28314C5.09468 9.3641 4.95838 9.40758 4.81866 9.40764C4.73647 9.41063 4.65585 9.38448 4.59087 9.33375C4.55806 9.30348 4.53265 9.266 4.5166 9.22422C4.50056 9.18244 4.49432 9.1375 4.49836 9.09289C4.49647 9.03656 4.50991 8.98078 4.53721 8.93156C4.56452 8.88235 4.60408 8.84157 4.65273 8.81364Z" fill="black"/><path d="M4.14678 5.64177C4.13759 5.49031 4.1627 5.33873 4.2202 5.19845C4.2737 5.10907 4.35184 5.03724 4.44514 4.99169C4.53843 4.94614 4.64286 4.92884 4.74574 4.94189C4.77162 4.94156 4.7975 4.94292 4.82321 4.94596C4.85385 4.94596 4.89259 4.95003 4.93133 4.95352V4.29028C4.90415 4.29028 4.88507 4.28621 4.87698 4.28621H4.84634C4.67609 4.27835 4.50869 4.33223 4.37457 4.43806C4.27089 4.53736 4.18225 4.65144 4.11151 4.77666V4.34439H3.49347V6.83327H4.14678V5.64177Z" fill="black"/><path d="M7.1067 3.32642H6.38401L5.94751 4.01118H6.41523L7.1067 3.32642Z" fill="black"/><path d="M11.4005 4.34455H10.7437V6.83343H11.4005V4.34455Z" fill="black"/><path d="M11.4008 3.44687H10.744V4.04553H11.4008V3.44687Z" fill="black"/><path d="M12.1159 6.3632C12.1056 6.48837 12.1444 6.61263 12.224 6.70936C12.3122 6.77718 12.4132 6.82628 12.5208 6.85368C12.6284 6.88108 12.7405 6.88622 12.8501 6.86877L13.1554 6.85714V6.37076C13.1363 6.37076 13.1126 6.37484 13.0895 6.37484H13.0276C12.8964 6.37484 12.8189 6.3632 12.7917 6.33586C12.7646 6.30851 12.753 6.24626 12.753 6.14503V4.83077H13.1577V4.36534H12.753V3.67185H12.1089V4.36418H11.7678V4.82961H12.1089V6.36553L12.1159 6.3632Z" fill="black"/><path d="M15.6362 4.66243C15.383 4.41071 15.0414 4.26955 14.6855 4.26955C14.3295 4.26955 13.9879 4.41071 13.7347 4.66243C13.5263 4.92681 13.4157 5.25589 13.4219 5.59329C13.4134 5.93301 13.5242 6.26488 13.7347 6.53055C13.9892 6.77992 14.3303 6.91947 14.6855 6.91947C15.0407 6.91947 15.3818 6.77992 15.6362 6.53055C15.847 6.26495 15.958 5.93308 15.9496 5.59329C15.9568 5.25564 15.8459 4.92618 15.6362 4.66243ZM15.1159 6.17159C15.0619 6.235 14.9949 6.2859 14.9195 6.3208C14.8441 6.35569 14.7621 6.37376 14.6791 6.37376C14.5961 6.37376 14.5141 6.35569 14.4387 6.3208C14.3633 6.2859 14.2963 6.235 14.2423 6.17159C14.1307 6.0015 14.0766 5.79971 14.088 5.5962C14.0747 5.39249 14.129 5.19011 14.2423 5.02081C14.2963 4.9574 14.3633 4.9065 14.4387 4.8716C14.5141 4.83671 14.5961 4.81864 14.6791 4.81864C14.7621 4.81864 14.8441 4.83671 14.9195 4.8716C14.9949 4.9065 15.0619 4.9574 15.1159 5.02081C15.2263 5.19131 15.2792 5.39307 15.2668 5.5962C15.2795 5.79803 15.2276 5.99865 15.1188 6.16868L15.1159 6.17159Z" fill="black"/><path d="M2.12145 6.0751C2.05627 6.15726 1.97238 6.22242 1.87687 6.26506C1.78137 6.30769 1.67706 6.32655 1.57278 6.32003C1.4611 6.3213 1.35066 6.29629 1.25029 6.24699C1.14991 6.1977 1.06236 6.12549 0.994636 6.03612C0.828445 5.78644 0.749526 5.48823 0.770314 5.18845C0.752795 4.88223 0.828205 4.57788 0.986542 4.31577C1.05001 4.21785 1.13728 4.13787 1.24008 4.0834C1.34288 4.02893 1.4578 4.00178 1.57394 4.00452C1.67633 3.99739 1.77901 4.01321 1.87458 4.05083C1.97016 4.08846 2.05625 4.14696 2.12665 4.2221C2.20961 4.32965 2.26768 4.45447 2.29663 4.58747H2.99619C2.98096 4.36125 2.90194 4.14409 2.7684 3.96146C2.62814 3.77195 2.44239 3.62134 2.22853 3.52376C2.01467 3.42618 1.77969 3.38481 1.54561 3.40353C1.35487 3.39793 1.16503 3.43199 0.987964 3.50356C0.810894 3.57513 0.650398 3.68269 0.516507 3.81951C0.354021 4.00371 0.229473 4.21853 0.150079 4.45152C0.0706858 4.68451 0.0380245 4.93104 0.0539877 5.17682C0.0492858 5.42742 0.0858169 5.67708 0.162102 5.91569C0.205539 6.04826 0.265159 6.17489 0.339593 6.29268C0.377715 6.35061 0.41902 6.40636 0.463317 6.45966C0.560373 6.57295 0.676896 6.66774 0.807316 6.7395C1.04584 6.86852 1.31362 6.93288 1.58435 6.92625C1.93275 6.93927 2.27248 6.81509 2.53136 6.58009C2.78196 6.34352 2.94508 6.02815 2.99387 5.68588H2.3001C2.26805 5.82669 2.20721 5.95925 2.12145 6.0751Z" fill="black"/><path d="M7.54678 5.27841C7.51995 5.0947 7.45259 4.91936 7.34964 4.76527C7.24459 4.60346 7.09574 4.47527 6.92065 4.39584C6.73656 4.31598 6.53774 4.27632 6.3373 4.27948C6.17409 4.27335 6.01137 4.3009 5.85914 4.36043C5.70692 4.41996 5.56841 4.51022 5.45215 4.62564C5.33252 4.75917 5.24079 4.91553 5.18239 5.08543C5.12399 5.25533 5.10012 5.43531 5.1122 5.61468C5.09526 5.79871 5.12061 5.9842 5.18627 6.1568C5.25193 6.32941 5.35616 6.48451 5.49089 6.61012C5.73558 6.81103 6.04231 6.91967 6.35811 6.9173C6.46963 6.91741 6.58092 6.90709 6.69055 6.88647C6.92015 6.84352 7.13005 6.72771 7.28951 6.55601C7.30512 6.5403 7.31668 6.52518 7.33229 6.50947C7.43643 6.39874 7.50511 6.25909 7.52944 6.10862H6.87151C6.83932 6.17373 6.79473 6.23185 6.74027 6.27966C6.63772 6.35945 6.5101 6.39951 6.38066 6.39253C6.2557 6.39659 6.13224 6.36427 6.0251 6.29944C5.9413 6.24147 5.87356 6.16298 5.82825 6.07137C5.78293 5.97977 5.76154 5.87806 5.76609 5.77583H7.56702C7.57225 5.60975 7.56549 5.4435 7.54678 5.27841ZM5.78054 5.34066C5.79467 5.19657 5.85564 5.0612 5.95398 4.95551C6.00526 4.90638 6.06595 4.8683 6.13236 4.84359C6.19877 4.81888 6.26949 4.80807 6.34019 4.81181C6.48013 4.80784 6.61654 4.85637 6.72292 4.94795C6.77698 4.998 6.82027 5.05867 6.8501 5.12621C6.87993 5.19376 6.89568 5.26674 6.89637 5.34066H5.78054Z" fill="black"/><path d="M9.16352 4.52434C9.27369 4.586 9.36565 4.67593 9.43005 4.78498V3.66504H10.0487V6.83461H9.45722V6.50823C9.38899 6.63603 9.28567 6.74139 9.15959 6.81175C9.0335 6.8821 8.88997 6.91447 8.7461 6.90501C8.61365 6.90582 8.48278 6.87609 8.36352 6.8181C8.24426 6.76012 8.13978 6.67541 8.0581 6.57048C7.86546 6.32852 7.76665 6.02442 7.78001 5.71467C7.76156 5.3774 7.85848 5.04395 8.05463 4.76985C8.1413 4.65806 8.25298 4.56845 8.38057 4.50829C8.50816 4.44814 8.64806 4.41915 8.78888 4.42369C8.91984 4.42751 9.04811 4.46197 9.16352 4.52434ZM9.31442 6.19639C9.40983 6.04727 9.45709 5.8721 9.44971 5.69489C9.46081 5.58233 9.44697 5.46868 9.40918 5.36214C9.37139 5.25561 9.31059 5.15883 9.23117 5.07878C9.14505 5.0047 9.03514 4.9646 8.92186 4.96591C8.84409 4.96066 8.76636 4.97671 8.69693 5.01236C8.6275 5.04801 8.56897 5.10192 8.52756 5.16838C8.43937 5.32163 8.39645 5.49701 8.40384 5.67395C8.39471 5.85729 8.43913 6.03932 8.53161 6.19756C8.57346 6.26111 8.63115 6.31251 8.69892 6.34661C8.7667 6.38071 8.84217 6.39631 8.91781 6.39187C8.99482 6.39522 9.07144 6.37914 9.14071 6.3451C9.20998 6.31106 9.26969 6.25956 9.31442 6.19639Z" fill="black"/></g></svg>