<svg width="167" height="32" viewBox="0 0 167 32" class="cuerosvelezco-global-components-0-x-navLogoVZBox" xmlns="http://www.w3.org/2000/svg" xmlns:xlink="http://www.w3.org/1999/xlink"><defs><g id="logo-vz"><path d="M26.7249 8.81759C26.3306 8.8406 25.9401 8.90835 25.561 9.01954C25.1667 9.11165 24.7865 9.25656 24.4308 9.45037C24.0268 9.66991 23.6813 9.98328 23.4231 10.3642C23.1385 10.7861 22.887 11.2295 22.6707 11.6904C21.8489 13.4855 20.6089 16.2904 18.9508 20.105C17.2926 23.9197 15.5941 27.8847 13.8554 32.0001H12.3103C10.5368 27.6244 8.82152 23.4047 7.16448 19.341C5.50743 15.2773 4.38781 12.5341 3.8056 11.1114C3.66358 10.7703 3.4642 10.456 3.21612 10.1824C2.9279 9.88589 2.59806 9.63303 2.23701 9.43186C1.89118 9.23087 1.51602 9.08549 1.12522 9.00102C0.756093 8.90765 0.37963 8.84628 0 8.81759V7.61597H10.8525V8.82095C10.0692 8.85746 9.28894 8.94346 8.51642 9.07844C7.8816 9.20298 7.5625 9.41503 7.5625 9.74152C7.56513 9.89068 7.59178 10.0384 7.64144 10.1791C7.68678 10.3474 7.73213 10.4871 7.76572 10.588C8.22812 11.6954 8.96931 13.504 9.98929 16.0138C11.0093 18.5236 12.4648 22.0915 14.3558 26.7173C15.2918 24.6282 16.3706 22.1543 17.5921 19.2956C18.8063 16.4447 19.6343 14.4857 20.0542 13.4187C20.3495 12.7291 20.5866 12.0158 20.7629 11.2865C20.8211 10.9658 20.8542 10.6412 20.862 10.3154C20.8591 10.1851 20.824 10.0575 20.7598 9.94413C20.6956 9.83075 20.6043 9.73511 20.4942 9.66579C20.1837 9.46353 19.8438 9.3108 19.4865 9.21308C19.0785 9.10215 18.664 9.01672 18.2454 8.95727C17.8289 8.90342 17.4057 8.85798 16.9741 8.82095V7.61597H26.7333L26.7249 8.81759Z"></path><path d="M61.1811 24.6001L60.6773 31.6937H38.9068V30.4854C39.2679 30.4618 39.7666 30.418 40.378 30.3389C40.7865 30.3099 41.1904 30.2349 41.5821 30.1151C41.9217 29.9886 42.2091 29.7515 42.3983 29.4419C42.5665 29.1244 42.6471 28.7677 42.6318 28.4086V11.1114C42.6412 10.7689 42.5729 10.4288 42.4319 10.1168C42.2471 9.78345 41.9436 9.53224 41.5821 9.4133C41.1487 9.23778 40.6985 9.10696 40.2386 9.02285C39.795 8.9289 39.3464 8.86035 38.895 8.81754V7.61255H59.1994V13.4153H57.8088C57.4731 12.4026 56.9302 11.4712 56.2151 10.6805C55.6553 9.87719 54.8171 9.31144 53.8638 9.09354C53.4876 9.04642 53.0359 9.01444 52.5035 8.98583C51.9711 8.95722 51.3598 8.95554 50.6897 8.95554H46.5734V18.5264H49.5326C50.2346 18.5585 50.937 18.4743 51.6117 18.2773C52.0602 18.1064 52.4579 17.8237 52.7672 17.4561C53.074 17.0627 53.3084 16.6176 53.4591 16.1417C53.6415 15.6394 53.7677 15.1185 53.8353 14.5883H55.2259V24.0229H53.8353C53.7803 23.4346 53.6458 22.8566 53.4356 22.3046C53.2913 21.8295 53.0638 21.3838 52.7638 20.9885C52.425 20.5759 51.9713 20.2736 51.4606 20.1201C50.8286 19.967 50.1792 19.898 49.5292 19.9148H46.5734V27.1329C46.5573 27.7083 46.6137 28.2833 46.7413 28.8445C46.83 29.2307 47.0594 29.5698 47.3846 29.7954C47.7841 30.0346 48.2338 30.1775 48.6979 30.2127C49.2555 30.2699 50.0414 30.3036 51.0625 30.3036H52.6782C53.3499 30.3036 53.9075 30.2784 54.3677 30.2329C54.8532 30.1811 55.335 30.099 55.8103 29.9872C56.2009 29.9172 56.5676 29.75 56.8768 29.5008C57.5867 28.7696 58.1879 27.9398 58.662 27.037C59.1274 26.2591 59.5268 25.4433 59.8561 24.5984L61.1811 24.6001ZM53.4289 3.27226C52.8892 3.52245 52.0495 3.89831 50.9097 4.39983C49.766 4.90471 48.4829 5.47691 47.047 6.12315L46.4642 5.46176C47.5895 4.47892 48.5014 3.66943 49.2135 3.02823C49.9256 2.38704 50.6158 1.73742 51.3077 1.06425C51.6271 0.74067 51.9907 0.464155 52.3876 0.242972C52.7129 0.0820441 53.0711 -0.000919331 53.4339 0.000628835C53.8682 -0.0105083 54.2934 0.126571 54.6397 0.389387C54.7954 0.497994 54.9225 0.642726 55.0102 0.811232C55.098 0.979738 55.1437 1.16701 55.1436 1.35708C55.154 1.57235 55.1166 1.78726 55.0341 1.98631C54.9516 2.18536 54.8261 2.36361 54.6666 2.50821C54.2955 2.82484 53.878 3.08252 53.4289 3.27226Z"></path><path d="M96.2808 24.5361L95.7216 31.6953H75.2207V30.487C75.5146 30.4634 75.9429 30.4264 76.5088 30.3725C76.9084 30.3471 77.3033 30.2719 77.6844 30.1487C78.0163 30.0311 78.2982 29.8038 78.4839 29.5041C78.6681 29.1726 78.7559 28.796 78.7374 28.417V11.1803C78.7486 10.8289 78.6779 10.4797 78.5309 10.1604C78.347 9.82847 78.0483 9.5753 77.6912 9.44856C77.308 9.2796 76.9107 9.145 76.5038 9.04634C76.0863 8.93535 75.6606 8.85825 75.2308 8.81578V7.61584H86.2949V8.82083C85.8439 8.84788 85.3951 8.90409 84.9514 8.98912C84.4072 9.10132 84.0092 9.19388 83.7573 9.26681C83.5724 9.31424 83.3999 9.40103 83.2516 9.52126C83.1032 9.64149 82.9824 9.79234 82.8974 9.96354C82.7407 10.2917 82.662 10.6517 82.6673 11.0154V27.18C82.6536 27.7632 82.6952 28.3465 82.7916 28.9218C82.8475 29.3025 83.0471 29.647 83.3492 29.8845C83.7328 30.1172 84.1677 30.2518 84.6155 30.2766C85.397 30.3504 86.1818 30.383 86.9667 30.3742C87.4218 30.3742 87.8971 30.3641 88.3976 30.3389C88.8643 30.3183 89.3296 30.2728 89.7915 30.2026C90.1964 30.141 90.5957 30.047 90.9856 29.9215C91.2908 29.8451 91.5705 29.6896 91.7967 29.4705C92.46 28.741 93.0517 27.9491 93.5635 27.1059C94.1038 26.2948 94.5687 25.4357 94.9524 24.5395L96.2808 24.5361Z"></path><path d="M131.498 24.6002L131.011 31.6938H109.217V30.4854C109.59 30.4618 110.083 30.4181 110.695 30.339C111.102 30.3093 111.505 30.2343 111.896 30.1152C112.238 29.9891 112.529 29.7522 112.722 29.442C112.888 29.1238 112.967 28.7673 112.95 28.4087V11.1114C112.96 10.7687 112.89 10.4283 112.747 10.1168C112.563 9.78185 112.259 9.53011 111.896 9.41335C111.462 9.2383 111.012 9.10749 110.552 9.0229C110.109 8.92821 109.66 8.85966 109.208 8.81759V7.61597H129.513V13.4187H128.122C127.789 12.4046 127.245 11.4727 126.527 10.684C125.97 9.88335 125.136 9.31797 124.187 9.09695C123.804 9.04983 123.348 9.01785 122.819 8.98924C122.29 8.96063 121.688 8.95895 121.01 8.95895H116.889V18.5298H119.844C120.546 18.5641 121.249 18.4799 121.924 18.2807C122.374 18.1108 122.773 17.828 123.082 17.4595C123.39 17.066 123.626 16.621 123.779 16.1451C123.957 15.6421 124.081 15.1213 124.147 14.5917H125.546V24.0263H124.147C124.093 23.4389 123.962 22.8611 123.757 22.308C123.613 21.8328 123.386 21.3871 123.086 20.992C122.75 20.5755 122.295 20.2724 121.782 20.1236C121.149 19.9696 120.499 19.9006 119.848 19.9182H116.892V27.138C116.878 27.7133 116.934 28.2881 117.06 28.8496C117.152 29.2357 117.383 29.5743 117.708 29.8004C118.11 30.0378 118.56 30.1805 119.025 30.2178C119.572 30.275 120.368 30.3087 121.391 30.3087H122.998C123.662 30.3087 124.228 30.2835 124.678 30.238C125.166 30.1852 125.652 30.1032 126.131 29.9923C126.519 29.9222 126.884 29.7556 127.192 29.5076C127.898 28.7746 128.498 27.9451 128.972 27.0438C129.438 26.2658 129.837 25.4501 130.166 24.6052L131.498 24.6002Z"></path><path d="M166.184 24.1759L165.309 31.6953H144.232V31.1012L160.744 8.9622H154.698C153.989 8.9622 153.397 8.97398 152.931 8.99249C152.494 9.01436 152.058 9.0627 151.626 9.13722C150.539 9.45105 149.577 10.0985 148.876 10.9885C147.91 11.9894 147.133 13.1571 146.581 14.4351H145.288L146.068 7.61584H165.73V8.20992L149.211 30.3523H155.447C156.566 30.3494 157.683 30.2819 158.794 30.1504C159.614 30.1391 160.413 29.8971 161.102 29.452C161.959 28.6967 162.712 27.8309 163.342 26.8771C163.939 26.0313 164.453 25.1295 164.876 24.1844L166.184 24.1759Z"></path></g></defs><use href="#logo-vz" xlink:href="#logo-vz"></use></svg>