<svg xmlns="http://www.w3.org/2000/svg" viewBox="0 3 16 10.66670036315918"><g id="payment-master"><path d="M0 3.53333C0 3.23878 0.238781 3 0.533333 3H15.4667C15.7612 3 16 3.23878 16 3.53333V13.1333C16 13.4279 15.7612 13.6667 15.4667 13.6667H0.533334C0.238782 13.6667 0 13.4279 0 13.1333V3.53333Z" fill="black"/><path d="M9.48144 5.364H6.3534V10.9852H9.48144V5.364Z" fill="#FF5F00"/><path d="M6.55202 8.1749C6.55153 7.63354 6.6742 7.09916 6.91076 6.61223C7.14732 6.12529 7.49156 5.69855 7.91742 5.36432C7.39005 4.94979 6.75669 4.692 6.08974 4.62042C5.42279 4.54883 4.74915 4.66634 4.14582 4.9595C3.54249 5.25267 3.03381 5.70967 2.67794 6.27827C2.32206 6.84687 2.13333 7.50412 2.13333 8.1749C2.13333 8.84569 2.32206 9.50294 2.67794 10.0715C3.03381 10.6401 3.54249 11.0971 4.14582 11.3903C4.74915 11.6835 5.42279 11.801 6.08974 11.7294C6.75669 11.6578 7.39005 11.4 7.91742 10.9855C7.49156 10.6513 7.14732 10.2245 6.91077 9.73758C6.67421 9.25064 6.55153 8.71626 6.55202 8.1749Z" fill="#EB001B"/><path d="M13.7013 8.1749C13.7013 8.84568 13.5126 9.50292 13.1568 10.0715C12.8009 10.6401 12.2923 11.0971 11.689 11.3903C11.0856 11.6835 10.412 11.801 9.74506 11.7294C9.07812 11.6578 8.44478 11.4 7.91742 10.9855C8.34291 10.6509 8.68687 10.2241 8.92339 9.73725C9.15991 9.25039 9.28281 8.71618 9.28281 8.1749C9.28281 7.63363 9.15991 7.09942 8.92339 6.61256C8.68687 6.12569 8.34291 5.69889 7.91742 5.36432C8.44478 4.94979 9.07812 4.692 9.74506 4.62042C10.412 4.54883 11.0856 4.66634 11.689 4.95951C12.2923 5.25268 12.8009 5.70968 13.1568 6.27828C13.5126 6.84688 13.7013 7.50413 13.7013 8.1749Z" fill="#F79E1B"/><path d="M13.3603 10.3904V10.2753H13.4067V10.2519H13.2885V10.2753H13.3349V10.3904H13.3603ZM13.5897 10.3904V10.2517H13.5535L13.5118 10.3471L13.4701 10.2517H13.4339V10.3904H13.4595V10.2858L13.4985 10.376H13.5251L13.5641 10.2855V10.3904H13.5897Z" fill="#F79E1B"/></g></svg>