<svg xmlns="http://www.w3.org/2000/svg" viewBox="0.5 0 14.999988555908203 15.999993324279785"><g id="payment-pse"><path d="M12.8386 6.50116H11.5542C11.1411 6.50116 10.9119 7.03857 10.9119 7.08754C10.9119 7.13651 10.82 7.52764 10.7287 7.91815H13.1138C13.1718 7.59529 13.2026 7.26752 13.2057 6.9388C13.2057 6.69641 12.8846 6.55012 12.8386 6.50116Z" fill="#23436C"/><path d="M1.5093 7.03674H0.545956C0.545956 7.32993 0.5 7.62312 0.5 7.91631H2.05962L1.5093 7.03674Z" fill="#23436C"/><path d="M6.46269 6.50116H5.27015C4.98569 6.61421 4.7548 6.84263 4.62792 7.13651C4.62792 7.23444 4.44467 8.11585 4.3068 9.09153C4.37031 9.22581 4.46077 9.34356 4.57176 9.43643C4.68274 9.52931 4.81154 9.59503 4.94903 9.62895L6.04967 9.57998C6.18288 9.52958 6.30259 9.4454 6.39846 9.33472C6.49434 9.22403 6.5635 9.09015 6.59999 8.94463L6.9211 6.94064C6.9211 6.74599 6.59999 6.50116 6.46269 6.50116Z" fill="#23436C"/><path d="M8.02524 0C6.6532 0.000749276 5.30759 0.402059 4.13454 1.16034C2.96149 1.91863 2.00586 3.0049 1.37143 4.30117C1.44688 4.31705 1.51517 4.35935 1.56544 4.42135C1.61572 4.48335 1.64509 4.56149 1.64889 4.64333C1.64991 4.68856 1.64231 4.73354 1.62653 4.77555C1.61076 4.81755 1.58714 4.85571 1.55712 4.8877C1.52709 4.91969 1.49128 4.94485 1.45186 4.96166C1.41244 4.97847 1.37022 4.98658 1.32778 4.98549C1.29232 4.98471 1.25747 4.97552 1.22577 4.95858C1.19407 4.94164 1.16631 4.91737 1.14453 4.88755C1.05435 5.1098 0.977041 5.33772 0.913026 5.57003C0.9305 5.58931 0.943698 5.61251 0.95165 5.63793C0.959603 5.66335 0.962108 5.69035 0.958982 5.71694C0.966815 5.78115 0.952575 5.84621 0.918891 5.9001C0.885207 5.95399 0.834357 5.99308 0.775734 6.01013C0.729778 6.25497 0.683823 6.4998 0.637867 6.79238H1.64889L2.33823 7.91679H3.98631V8.11205H2.93105L2.28882 9.28604H1.59949C1.58591 9.35375 1.55143 9.41466 1.50155 9.45904C1.45167 9.50342 1.38928 9.52871 1.32433 9.53088C1.23916 9.53088 1.15749 9.49483 1.09727 9.43066C1.03705 9.3665 1.00321 9.27947 1.00321 9.18872C1.00321 9.09797 1.03705 9.01094 1.09727 8.94678C1.15749 8.88261 1.23916 8.84656 1.32433 8.84656C1.38928 8.84873 1.45167 8.87402 1.50155 8.9184C1.55143 8.96278 1.58591 9.02369 1.59949 9.0914H2.24287L2.79319 8.11205H0.5C0.505732 8.75484 0.582861 9.39464 0.729778 10.0181C0.778144 10.0719 0.810175 10.1399 0.821689 10.2134C0.821689 10.2623 0.821689 10.3113 0.775734 10.3113C0.867645 10.5561 0.958982 10.8487 1.05089 11.0936C1.09685 11.0446 1.1428 11.0446 1.23414 11.0446C1.27659 11.0435 1.3188 11.0516 1.35823 11.0684C1.39765 11.0852 1.43346 11.1104 1.46348 11.1424C1.49351 11.1744 1.51712 11.2125 1.5329 11.2545C1.54867 11.2965 1.55628 11.3415 1.55526 11.3867C1.5604 11.4579 1.53926 11.5284 1.49633 11.5831C1.45341 11.6379 1.3921 11.6726 1.32548 11.6799C1.93775 12.9392 2.8532 14.0025 3.97805 14.7607C5.1029 15.519 6.39671 15.9449 7.72691 15.995C9.05712 16.0451 10.3759 15.7175 11.5482 15.0457C12.7204 14.3739 13.704 13.3822 14.3982 12.172C15.0923 10.9619 15.4721 9.5769 15.4985 8.15892C15.525 6.74093 15.1972 5.34094 14.5487 4.10237C13.9002 2.86381 12.9544 1.8312 11.8081 1.11034C10.6618 0.389479 9.35626 0.00627885 8.02524 0ZM2.01366 6.10929C1.9285 6.10929 1.84682 6.07324 1.7866 6.00907C1.72638 5.9449 1.69255 5.85787 1.69255 5.76713C1.69255 5.67638 1.72638 5.58935 1.7866 5.52518C1.84682 5.46102 1.9285 5.42497 2.01366 5.42497C2.05611 5.42388 2.09833 5.43198 2.13775 5.44879C2.17717 5.4656 2.21298 5.49076 2.243 5.52276C2.27303 5.55475 2.29664 5.5929 2.31242 5.63491C2.3282 5.67692 2.3358 5.7219 2.33478 5.76713C2.32197 5.85296 2.28402 5.93228 2.22634 5.99374C2.16866 6.0552 2.09422 6.09564 2.01366 6.10929ZM1.96771 10.6057C1.88254 10.6057 1.80087 10.5697 1.74065 10.5055C1.68042 10.4413 1.64659 10.3543 1.64659 10.2636C1.64659 10.1728 1.68042 10.0858 1.74065 10.0216C1.80087 9.95744 1.88254 9.92139 1.96771 9.92139C2.05287 9.92139 2.13455 9.95744 2.19477 10.0216C2.25499 10.0858 2.28882 10.1728 2.28882 10.2636C2.28882 10.3543 2.25499 10.4413 2.19477 10.5055C2.13455 10.5697 2.05287 10.6057 1.96771 10.6057ZM6.82981 9.04182C6.77756 9.21907 6.68843 9.38147 6.56908 9.51692C6.44972 9.65236 6.30322 9.75735 6.14048 9.82407H6.09452L4.94563 9.87304C4.6754 9.8146 4.43212 9.65928 4.2563 9.43295C4.11843 10.1675 4.02652 10.902 3.93518 11.339C3.93518 11.388 3.88923 11.4369 3.79732 11.4369C3.70541 11.388 3.70541 11.339 3.70541 11.29C3.70541 11.29 3.88865 10.2636 4.07248 9.18872C4.16439 8.6513 4.25572 8.16224 4.30225 7.77112C4.34821 7.57586 4.34821 7.42896 4.39417 7.28144C4.39417 7.18351 4.44012 7.13454 4.44012 7.08619C4.5148 6.89309 4.62726 6.71918 4.77 6.57606C4.91274 6.43294 5.08248 6.32389 5.2679 6.25619H6.55465C6.64657 6.25619 7.24399 6.50103 7.15093 6.9907L6.82981 9.04365V9.04182ZM10.1323 6.45145H8.38943C8.2143 6.48328 8.0548 6.57845 7.93783 6.72094C7.82085 6.86342 7.75352 7.04451 7.7472 7.2337C7.74628 7.36615 7.7862 7.49525 7.86081 7.60119C7.93543 7.70712 8.04062 7.78403 8.16023 7.82008H9.39873C9.39873 7.82008 10.041 7.86905 9.99501 8.79943C9.98398 9.04392 9.89685 9.27754 9.74737 9.46341C9.5979 9.64929 9.39459 9.77683 9.16953 9.82591H7.19689C7.17384 9.82396 7.15233 9.81283 7.13664 9.79474C7.12095 9.77664 7.11223 9.75291 7.11223 9.72828C7.11223 9.70364 7.12095 9.67992 7.13664 9.66182C7.15233 9.64373 7.17384 9.6326 7.19689 9.63065H9.12358C9.29691 9.60368 9.45442 9.5083 9.56486 9.36341C9.6753 9.21852 9.73062 9.0347 9.71985 8.8484C9.7658 8.21305 9.39873 8.16408 9.35278 8.16408H8.11427C7.93709 8.12657 7.77881 8.02155 7.66905 7.86866C7.5593 7.71577 7.5056 7.5255 7.518 7.33347C7.521 7.08619 7.60523 6.84785 7.75603 6.65987C7.90684 6.4719 8.1147 6.34617 8.34348 6.30454H10.1323C10.1561 6.30626 10.1786 6.31713 10.1955 6.33514C10.2124 6.35315 10.2226 6.37707 10.2242 6.40248C10.2242 6.45145 10.1783 6.45145 10.1323 6.45145ZM13.2975 8.11328C13.2959 8.13868 13.2857 8.16261 13.2688 8.18061C13.2519 8.19862 13.2294 8.20949 13.2056 8.21121H10.6826C10.6367 8.60234 10.5907 8.99346 10.5907 9.19056C10.5907 9.58168 11.0503 9.63065 11.0951 9.63065H12.8839C12.8965 9.62958 12.9092 9.63131 12.9212 9.63574C12.9332 9.64016 12.9442 9.64718 12.9535 9.65635C12.9628 9.66552 12.9703 9.67664 12.9754 9.68902C12.9804 9.7014 12.9831 9.71477 12.9831 9.72828C12.9831 9.74179 12.9804 9.75516 12.9754 9.76754C12.9703 9.77992 12.9628 9.79104 12.9535 9.80021C12.9442 9.80938 12.9332 9.8164 12.9212 9.82082C12.9092 9.82524 12.8965 9.82697 12.8839 9.82591H11.0497C10.8199 9.77694 10.3604 9.63065 10.3604 9.14159C10.4338 8.43579 10.541 7.73445 10.6815 7.04028C10.6815 6.99131 10.9566 6.25803 11.5529 6.25803H12.8833C13.0303 6.29721 13.1622 6.38412 13.2608 6.50672C13.3594 6.62933 13.4198 6.78156 13.4336 6.94234C13.4123 7.3354 13.3668 7.72654 13.2975 8.11328Z" fill="#23436C"/></g></svg>