<svg xmlns="http://www.w3.org/2000/svg" viewBox="0 3 16 10.666705131530762"><g id="payment-visa"><path d="M15.3484 13.6667H0.651619C0.478848 13.6665 0.313199 13.6034 0.191031 13.491C0.0688638 13.3787 0.000159899 13.2265 0 13.0676V3.59904C0.000159899 3.44021 0.0688638 3.28793 0.191031 3.17562C0.313199 3.06331 0.478848 3.00015 0.651619 3H15.3484C15.5212 3.00015 15.6868 3.06331 15.809 3.17562C15.9311 3.28793 15.9998 3.44021 16 3.59904V13.071C15.9998 13.1494 15.9829 13.2271 15.95 13.2995C15.9172 13.3719 15.8691 13.4377 15.8086 13.493C15.748 13.5484 15.6762 13.5922 15.5973 13.622C15.5183 13.6518 15.4337 13.667 15.3484 13.6667Z" fill="#322857"/><path d="M6.84545 10.4518H5.7577L6.43889 6.27277H7.52664L6.84545 10.4518Z" fill="white"/><path d="M4.84197 6.272L3.80384 9.14505L3.68147 8.52477L3.31776 6.64699C3.29585 6.53078 3.23046 6.42729 3.13491 6.35762C3.03935 6.28795 2.92083 6.25733 2.80348 6.272H1.08642L1.06668 6.34136C1.46821 6.44166 1.85186 6.60333 2.20406 6.82067L3.14972 10.4505H4.28371L6.01769 6.272H4.84197Z" fill="white"/><path d="M13.4012 10.451H14.3999L13.5298 6.27201H12.654C12.5482 6.26393 12.4425 6.28966 12.3522 6.3455C12.2619 6.40134 12.1917 6.4844 12.1516 6.58272L10.5281 10.451H11.6621L11.8877 9.83076H13.2698L13.4012 10.451ZM12.204 8.97308L12.7758 7.40939L13.0995 8.97308H12.204Z" fill="white"/><path d="M10.6141 7.27765L10.7703 6.38162C10.4558 6.26962 10.1256 6.20833 9.79192 6.20005C9.25283 6.20005 7.97053 6.43463 7.97053 7.58216C7.97053 8.66315 9.47501 8.67668 9.47501 9.24171C9.47501 9.80673 8.12617 9.70805 7.67956 9.35054L7.51772 10.286C7.90719 10.448 8.32586 10.5278 8.74758 10.5206C9.49136 10.5206 10.6084 10.1372 10.6084 9.08889C10.6084 8.00113 9.091 7.90471 9.091 7.42934C9.091 6.95398 10.15 7.01995 10.6141 7.27765Z" fill="white"/></g></svg>